<?xml version="1.0" encoding="UTF-8"?>
<svg version="1.1" xmlns="http://www.w3.org/2000/svg" width="1080" height="1080">
<path d="M0 0 C356.4 0 712.8 0 1080 0 C1080 356.4 1080 712.8 1080 1080 C723.6 1080 367.2 1080 0 1080 C0 723.6 0 367.2 0 0 Z " fill="#4B2E83" transform="translate(0,0)"/>
<path d="M0 0 C30.51453022 -0.2941366 61.028604 -0.52675919 91.54420852 -0.66384928 C95.15016157 -0.68010767 98.75611176 -0.69693394 102.36206055 -0.71411133 C103.43883966 -0.71922638 103.43883966 -0.71922638 104.5373719 -0.72444477 C116.14750149 -0.78094969 127.7567908 -0.88341231 139.36642257 -1.00298635 C151.28692404 -1.12473444 163.20698672 -1.19680086 175.12808436 -1.22315043 C181.82117823 -1.23935923 188.51225178 -1.27982236 195.20475197 -1.37449074 C201.50823031 -1.46293132 207.80902776 -1.48991277 214.11306763 -1.47039986 C216.42261532 -1.4739677 218.73225535 -1.49971651 221.04126549 -1.54967117 C239.38913096 -1.92705075 239.38913096 -1.92705075 244.77736473 2.86205482 C247.67080734 5.97775593 249.83173414 9.35247857 252 13 C252.97295559 14.26295941 253.96408851 15.51259831 254.98828125 16.734375 C256.13876953 18.22710937 256.13876953 18.22710937 257.3125 19.75 C261.41545654 25.02994809 265.61466121 30.22128887 269.875 35.375 C270.4642627 36.08793213 271.05352539 36.80086426 271.66064453 37.53540039 C272.25087402 38.24946045 272.84110352 38.96352051 273.44921875 39.69921875 C280.88402236 48.69453866 288.25853258 57.7363624 295.4375 66.9375 C300.65198584 73.61864949 306.0370417 80.15246302 311.4375 86.68359375 C318.99626177 95.8281242 326.46116206 105.05021597 333.85546875 114.328125 C336.09863729 117.12289236 338.3605123 119.90175056 340.62475586 122.67944336 C345.28156094 128.39250049 349.90604251 134.1244097 354.4375 139.9375 C359.65166252 146.61889248 365.03705086 153.1524741 370.4375 159.68359375 C377.99626177 168.8281242 385.46116206 178.05021597 392.85546875 187.328125 C395.09863729 190.12289236 397.3605123 192.90175056 399.62475586 195.67944336 C404.28156094 201.39250049 408.90604251 207.1244097 413.4375 212.9375 C418.65166252 219.61889248 424.03705086 226.1524741 429.4375 232.68359375 C436.99626177 241.8281242 444.46116206 251.05021597 451.85546875 260.328125 C454.09863729 263.12289236 456.3605123 265.90175056 458.62475586 268.67944336 C463.28156094 274.39250049 467.90604251 280.1244097 472.4375 285.9375 C477.65166252 292.61889248 483.03705086 299.1524741 488.4375 305.68359375 C495.99626177 314.8281242 503.46116206 324.05021597 510.85546875 333.328125 C513.09863729 336.12289236 515.3605123 338.90175056 517.62475586 341.67944336 C522.28156094 347.39250049 526.90604251 353.1244097 531.4375 358.9375 C536.65166252 365.61889248 542.03705086 372.1524741 547.4375 378.68359375 C554.9868264 387.81670936 562.44138605 397.02797781 569.828125 406.29296875 C573.3420883 410.67278272 576.88881882 415.02596767 580.43359375 419.38085938 C580.96597656 420.03505859 581.49835937 420.68925781 582.046875 421.36328125 C582.51963867 421.94376221 582.99240234 422.52424316 583.47949219 423.12231445 C585.32957016 425.40698845 587.16418876 427.70385369 589 430 C589.0689235 395.58766361 589.12165858 361.17534319 589.15319599 326.7629525 C589.15694734 322.68449751 589.16083038 318.60604267 589.16479492 314.52758789 C589.16558185 313.71576645 589.16636878 312.903945 589.16717956 312.06752291 C589.18017288 298.98591038 589.20379254 285.90433809 589.23145839 272.82274929 C589.25968288 259.36303407 589.27621192 245.90333966 589.28226548 232.44359607 C589.28634693 224.16282332 589.29915486 215.88216438 589.3237494 207.60142674 C589.33981803 201.89461139 589.34435365 196.18785339 589.34050413 190.48101715 C589.33861471 187.20653182 589.3428815 183.93227962 589.35761642 180.65782166 C589.51366767 144.1365799 589.52281026 96.69850953 563 68 C562.1646875 67.08347656 562.1646875 67.08347656 561.3125 66.1484375 C540.72239443 46.0179325 505.03232213 40.83898158 478 35 C478 23.45 478 11.9 478 0 C568.42 0 658.84 0 752 0 C752 11.55 752 23.1 752 35 C743.7396875 36.051875 743.7396875 36.051875 735.3125 37.125 C709.63551943 40.61447126 682.72483116 45.94051705 664.875 66.5 C638.06953302 101.93863925 643.69423625 158.60872103 643.68332577 200.4222734 C643.67958613 206.37822485 643.66440888 212.33414948 643.65071106 218.29008484 C643.62714208 229.24330401 643.61213232 240.1965137 643.60138212 251.14975239 C643.5913697 261.25624489 643.57684547 271.36272012 643.55806351 281.46920013 C643.55619021 282.47903939 643.55619021 282.47903939 643.55427906 283.50927944 C643.54791412 286.92913058 643.54147723 290.34898158 643.53501268 293.76883253 C643.48951452 317.90626302 643.45299698 342.04369939 643.421875 366.18115234 C643.39164516 389.6105231 643.35727639 413.0398819 643.31738281 436.46923828 C643.31553631 437.55512203 643.31553631 437.55512203 643.3136525 438.66294282 C643.3012842 445.93376936 643.2888326 453.20459575 643.27632002 460.47542204 C643.25083898 475.28307271 643.22591341 490.09072429 643.20132446 504.89837646 C643.20019355 505.57900545 643.19906264 506.25963444 643.19789747 506.96088855 C643.12261517 552.30724519 643.06031669 597.65362124 643 643 C632.76010401 643.30231024 622.5212825 643.53273603 612.27781963 643.67355824 C607.52010801 643.74117913 602.76546607 643.83274014 598.00952148 643.98071289 C593.41211571 644.12284412 588.81764455 644.19986517 584.21821022 644.23340416 C582.4712383 644.25727451 580.72441265 644.30389639 578.97870445 644.37449074 C565.68348338 644.89034007 565.68348338 644.89034007 561.18600273 641.72215652 C557.47871841 638.24859084 554.74641274 634.24879841 552 630 C551.02023086 628.74231901 550.02794185 627.49403848 549.01171875 626.265625 C548.24472656 625.27046875 547.47773437 624.2753125 546.6875 623.25 C542.55012157 617.92183424 538.30395985 612.69437398 534 607.5 C529.30694514 601.83411068 524.70210849 596.11428183 520.18359375 590.30859375 C516.5351487 585.63900956 512.77985286 581.0635992 509 576.5 C504.1895001 570.69185874 499.4670584 564.82778059 494.82763672 558.88232422 C491.42484539 554.52559655 487.94879057 550.23482388 484.4375 545.96484375 C477.39446671 537.3980773 470.38220345 528.80852369 463.5625 520.0625 C458.88268255 514.06169693 454.05641858 508.19037012 449.20263672 502.32983398 C444.99738913 497.24112617 440.88862044 492.08650766 436.82763672 486.88232422 C433.42484539 482.52559655 429.94879057 478.23482388 426.4375 473.96484375 C419.39446671 465.3980773 412.38220345 456.80852369 405.5625 448.0625 C400.87916452 442.05718586 396.04918884 436.18150341 391.19165039 430.31665039 C387.10748266 425.37465665 383.12108479 420.36774396 379.18359375 415.30859375 C375.5351487 410.63900956 371.77985286 406.0635992 368 401.5 C363.1895001 395.69185874 358.4670584 389.82778059 353.82763672 383.88232422 C350.42484539 379.52559655 346.94879057 375.23482388 343.4375 370.96484375 C336.39446671 362.3980773 329.38220345 353.80852369 322.5625 345.0625 C317.87916452 339.05718586 313.04918884 333.18150341 308.19165039 327.31665039 C304.10748266 322.37465665 300.12108479 317.36774396 296.18359375 312.30859375 C292.5351487 307.63900956 288.77985286 303.0635992 285 298.5 C280.1895001 292.69185874 275.4670584 286.82778059 270.82763672 280.88232422 C267.42484539 276.52559655 263.94879057 272.23482388 260.4375 267.96484375 C253.39446671 259.3980773 246.38220345 250.80852369 239.5625 242.0625 C234.88268255 236.06169693 230.05641858 230.19037012 225.20263672 224.32983398 C220.99738913 219.24112617 216.88862044 214.08650766 212.82763672 208.88232422 C209.42484539 204.52559655 205.94879057 200.23482388 202.4375 195.96484375 C191.68908435 182.89104972 181.13334234 169.6819618 170.81713867 156.2644043 C170.35338585 155.6613723 169.88963303 155.0583403 169.41182709 154.43703461 C168.27447649 152.95808067 167.13722802 151.4790482 166 150 C165.93116013 192.47220761 165.87838336 234.94440873 165.84680401 277.41666119 C165.84305241 282.44403398 165.83916939 287.47140667 165.83520508 292.4987793 C165.83441815 293.49953409 165.83363122 294.50028889 165.83282044 295.53136959 C165.8198075 311.68269592 165.79617661 327.83398983 165.76854161 343.985297 C165.74037245 360.58869756 165.72379956 377.19208128 165.71773452 393.79550475 C165.7136418 404.02018279 165.70077052 414.24476918 165.6762506 424.46941897 C165.66025087 431.50451671 165.65563139 438.53956788 165.65949587 445.57468245 C165.66139558 449.61849705 165.65872661 453.66215284 165.64238358 457.70593834 C165.50290349 494.05805541 165.99129832 534.75882479 187 566 C187.65162109 566.97453125 187.65162109 566.97453125 188.31640625 567.96875 C206.77456713 592.21230459 249.40125383 597.8669453 277 604 C277 615.55 277 627.1 277 639 C186.25 639 95.5 639 2 639 C2 627.45 2 615.9 2 604 C5.36416597 602.87861134 8.33834141 602.64339462 11.875 602.3125 C40.7853502 599.13059375 72.1943213 593.05422918 92 570 C96.269422 564.46025781 98.80763724 558.33058138 101.1875 551.8125 C101.4256543 551.16659912 101.66380859 550.52069824 101.90917969 549.85522461 C106.06017381 537.79376307 107.59244896 524.99586684 108.6622467 512.34933472 C108.72514214 511.62587486 108.78803758 510.902415 108.85283894 510.15703212 C110.2811635 493.4116775 110.43848648 476.7075092 110.40683305 459.91147351 C110.40199363 455.55852841 110.41470272 451.20562287 110.42485046 446.85269165 C110.44183036 438.38161603 110.44292366 429.91061523 110.43763756 421.43952705 C110.43356013 414.54881769 110.43508117 407.65813008 110.44038582 400.76742172 C110.44113424 399.77867279 110.44188266 398.78992386 110.44265376 397.77121284 C110.44418553 395.76141962 110.44572387 393.7516264 110.44726873 391.7418332 C110.46091479 373.00679784 110.45560898 354.27180455 110.44408352 335.53677021 C110.43412883 318.44197255 110.44714443 301.34728278 110.47101771 284.25250174 C110.4954554 266.61860408 110.505007 248.98475659 110.49836498 231.35084236 C110.49488706 221.48250103 110.49701156 211.61424284 110.51461601 201.74591446 C110.5293954 193.35904612 110.52989734 184.97231974 110.5125451 176.585454 C110.50408548 172.31743948 110.50176138 168.04967797 110.51719666 163.78167725 C110.62383426 131.97928979 107.70855249 104.48381231 87 79 C86.36964844 78.175 85.73929687 77.35 85.08984375 76.5 C81.31757697 71.98738179 76.66221714 68.54654493 72 65 C71.47567383 64.59587891 70.95134766 64.19175781 70.41113281 63.77539062 C50.05580517 48.35877282 24.48113624 41.64949298 0 36 C0 24.12 0 12.24 0 0 Z " fill="#FEFEFE" transform="translate(166,223)"/>
</svg>
