<?xml version="1.0" encoding="UTF-8"?>
<svg version="1.1" xmlns="http://www.w3.org/2000/svg" width="1080" height="1080">
<path d="M0 0 C356.4 0 712.8 0 1080 0 C1080 356.4 1080 712.8 1080 1080 C723.6 1080 367.2 1080 0 1080 C0 723.6 0 367.2 0 0 Z " fill="#004AAC" transform="translate(0,0)"/>
<path d="M0 0 C0.77190674 0.00087616 1.54381348 0.00175232 2.33911133 0.00265503 C14.25274358 0.04721243 25.46016529 0.68342728 36.875 4.375 C37.65149902 4.62169434 38.42799805 4.86838867 39.22802734 5.12255859 C50.62068526 8.83651492 61.34209696 13.68974227 71.875 19.375 C72.89722656 19.91640625 73.91945313 20.4578125 74.97265625 21.015625 C93.50257583 31.29062751 108.80801013 45.93287611 123.46875 61.03125 C125.38860606 62.90123967 127.32854702 64.62955227 129.36523438 66.36523438 C134.11699275 70.51177924 138.55710373 74.94253128 142.99533081 79.42016602 C144.47431909 80.91214243 145.95660502 82.40077553 147.43969727 83.88867188 C151.11947387 87.58168154 154.79372627 91.28017112 158.46813965 94.97851562 C161.58545629 98.11570304 164.70491088 101.25073602 167.82711792 104.38305664 C169.27365069 105.83597908 170.71709167 107.29192281 172.16040039 108.74804688 C175.9683895 112.57009773 179.76449019 116.34816206 183.86132812 119.86132812 C188.5364248 123.87250923 192.84550947 128.23272925 197.18052673 132.60536194 C198.69312332 134.13093977 200.20901202 135.65318086 201.72570801 137.17468262 C205.48895801 140.95116982 209.24668668 144.73313511 213.00457764 148.51495361 C216.19235668 151.72259868 219.38227042 154.92809295 222.57493591 158.13087463 C224.05470556 159.61703689 225.53138565 161.10621996 227.00793457 162.59558105 C231.58114288 167.18530714 236.2026653 171.61971331 241.12210083 175.83581543 C243.73887623 178.13355188 246.10809191 180.6040753 248.51171875 183.125 C249.51032656 184.15566653 250.50969666 185.18559494 251.50976562 186.21484375 C253.05095216 187.80576194 254.58683326 189.40067253 256.1105957 191.00830078 C257.60569295 192.58186278 259.1190165 194.13577167 260.63671875 195.6875 C261.966427 197.07388672 261.966427 197.07388672 263.32299805 198.48828125 C265.71782092 200.67693402 265.71782092 200.67693402 268.63989258 200.23046875 C270.81308515 199.57279166 270.81308515 199.57279166 271.875 198.375 C272.62715108 194.0157588 270.99750966 191.5685055 268.5234375 188.06054688 C267.80027344 187.07151367 267.80027344 187.07151367 267.0625 186.0625 C266.04526562 184.62912428 265.02834721 183.19552429 264.01171875 181.76171875 C263.22740479 180.66802979 263.22740479 180.66802979 262.42724609 179.55224609 C260.03086989 176.19098737 257.70470194 172.78263629 255.375 169.375 C254.45611656 168.03749419 253.53684474 166.70025512 252.6171875 165.36328125 C252.16311523 164.70279785 251.70904297 164.04231445 251.24121094 163.36181641 C249.89295337 161.40110875 248.54420132 159.44074217 247.1953125 157.48046875 C246.29686716 156.17448456 245.3984297 154.86849495 244.5 153.5625 C244.05358154 152.91385986 243.60716309 152.26521973 243.1472168 151.59692383 C240.61436601 147.91412377 238.09004337 144.22570521 235.57421875 140.53125 C235.01476562 139.71084229 234.4553125 138.89043457 233.87890625 138.04516602 C232.76077181 136.40395511 231.64484583 134.7612372 230.53125 133.11694336 C228.18218252 129.66479531 225.82658473 126.25064244 223.23828125 122.97265625 C217.93831621 116.22976879 217.93831621 116.22976879 217.625 112 C218.0375 110.80375 218.45 109.6075 218.875 108.375 C219.11992188 107.46621094 219.36484375 106.55742187 219.6171875 105.62109375 C225.1370251 85.71548472 235.29439963 67.90626842 248.875 52.375 C249.31424805 51.8701709 249.75349609 51.3653418 250.20605469 50.84521484 C256.861322 43.2504599 263.76987835 36.45125339 271.875 30.375 C272.65311035 29.77921143 273.4312207 29.18342285 274.23291016 28.56958008 C280.8871512 23.57620793 287.72486892 19.47489201 295.125 15.6875 C296.76698364 14.84179443 296.76698364 14.84179443 298.44213867 13.97900391 C306.42458111 9.943249 314.20847905 6.66784171 322.875 4.375 C323.9371875 4.07335937 324.999375 3.77171875 326.09375 3.4609375 C362.40227389 -6.34969901 406.57763402 0.19354274 439.12304688 18.36328125 C471.41418686 37.01078461 493.40527419 66.58822137 503.27734375 102.3359375 C503.7335895 104.09715292 504.1828952 105.8601818 504.625 107.625 C504.82391846 108.3969873 505.02283691 109.16897461 505.2277832 109.96435547 C510.10902167 130.77505811 509.17721077 152.50140992 509.16576743 173.72431719 C509.16535507 178.50636781 509.17643776 183.28839514 509.18588257 188.07043457 C509.20240233 197.41404882 509.20798796 206.75763781 509.20910732 216.10126545 C509.2100619 223.70450542 509.21419248 231.30773715 509.22050858 238.9109745 C509.23809465 260.52449786 509.24735132 282.13800147 509.24584763 303.75153204 C509.24572776 305.49451269 509.24572776 305.49451269 509.24560547 307.27270508 C509.24552371 308.43613012 509.24544195 309.59955517 509.24535771 310.79823551 C509.24454507 329.64620018 509.2636841 348.49408489 509.2918822 367.34202643 C509.3206875 386.75074898 509.33441837 406.15943261 509.33269465 425.56817704 C509.33203349 436.44237389 509.3374051 447.31648684 509.35905075 458.19066429 C509.37736333 467.44874573 509.38152771 476.70670523 509.3680319 485.96479704 C509.36155333 490.67686358 509.36119729 495.38869686 509.3787384 500.10074043 C509.46229552 524.03865126 509.41991578 548.12174106 501.125 570.9375 C500.78138428 571.92016846 500.43776855 572.90283691 500.08374023 573.9152832 C493.19794061 593.07665546 482.98796403 608.73385618 468.875 623.375 C468.22015625 624.09300781 467.5653125 624.81101562 466.890625 625.55078125 C460.99427698 631.83769933 454.0173175 636.61951809 446.875 641.375 C445.45574219 642.32052734 445.45574219 642.32052734 444.0078125 643.28515625 C413.09697311 662.50591899 371.47031477 669.31152288 335.875 662.375 C335.10687988 662.2296582 334.33875977 662.08431641 333.54736328 661.93457031 C300.7263285 655.54260202 274.87295965 638.92361777 251.64672852 615.50317383 C250.39558882 614.25282761 249.14379331 613.00313733 247.8914032 611.75404358 C244.53380763 608.40152202 241.18550331 605.03986614 237.839082 601.67619538 C234.31616152 598.13808896 230.78498818 594.60823616 227.25486755 591.07731628 C221.33682596 585.15559924 215.42441796 579.22830719 209.51586914 573.29711914 C201.94840827 565.70072054 194.3716497 558.1136665 186.79193211 550.52950001 C180.24613655 543.9797159 173.70459832 537.42568449 167.16374469 530.87096572 C165.07366326 528.77680243 162.98300812 526.6832132 160.89227486 524.5897007 C157.60240714 521.29491275 154.3152176 517.99747446 151.0300312 514.69801903 C149.82922529 513.49272119 148.62760271 512.2882363 147.42507553 511.08465576 C141.89423325 505.54788433 136.38739393 500.02718546 131.32079411 494.05426407 C126.63046662 488.60653234 121.42846232 483.58136854 116.37695312 478.47192383 C114.9491522 477.02232566 113.52766255 475.56648612 112.11230469 474.10473633 C110.05522855 471.98109658 107.97944057 469.87750934 105.8984375 467.77734375 C105.26811615 467.11919174 104.6377948 466.46103973 103.9883728 465.78294373 C100.62882244 462.24979534 100.62882244 462.24979534 96.06103516 461.28735352 C93.56272038 462.30408597 93.56272038 462.30408597 91.875 465.375 C91.37715154 470.05191481 92.15611334 472.53831643 94.76953125 476.39453125 C95.38989258 477.32571777 96.01025391 478.2569043 96.64941406 479.21630859 C97.32198242 480.19680176 97.99455078 481.17729492 98.6875 482.1875 C100.07453365 484.25890376 101.46125023 486.33051987 102.84765625 488.40234375 C103.5348877 489.41925293 104.22211914 490.43616211 104.93017578 491.48388672 C107.54657556 495.37334268 110.0913687 499.3063478 112.625 503.25 C113.5048754 504.61219428 114.38508093 505.97417537 115.265625 507.3359375 C115.69423828 507.99948242 116.12285156 508.66302734 116.56445312 509.34667969 C119.28577021 513.55843496 122.01109815 517.76759666 124.7355957 521.97729492 C127.11534772 525.65462816 129.49404321 529.33263858 131.87109375 533.01171875 C132.60972656 534.15447266 132.60972656 534.15447266 133.36328125 535.3203125 C134.2998264 536.76930688 135.23604704 538.21851107 136.171875 539.66796875 C136.59855469 540.32796875 137.02523438 540.98796875 137.46484375 541.66796875 C138.06981689 542.62195557 138.06981689 542.62195557 138.68701172 543.59521484 C139.99892121 545.62101038 139.99892121 545.62101038 142.25390625 548.30078125 C144.84514696 553.21477267 143.75724022 557.34397798 142.24951172 562.52392578 C141.50471116 564.6948759 140.68117804 566.81316791 139.8125 568.9375 C139.50159424 569.71125977 139.19068848 570.48501953 138.87036133 571.28222656 C131.11776488 590.22228528 121.06744552 605.65612845 106.875 620.375 C106.17117188 621.14199219 105.46734375 621.90898438 104.7421875 622.69921875 C80.00149662 648.89801119 42.95661591 663.11286674 7.42578125 664.64453125 C-33.81912124 665.76377618 -71.76040517 651.49161439 -101.88549805 623.4699707 C-115.87975274 610.18228525 -126.22078813 594.91330177 -134.125 577.375 C-134.66898438 576.18648437 -135.21296875 574.99796875 -135.7734375 573.7734375 C-144.28872634 553.93324676 -147.44377122 532.48921149 -147.38569641 511.02684021 C-147.38872386 509.42105004 -147.3926163 507.81526132 -147.39728898 506.2094751 C-147.40750166 501.83500983 -147.40540446 497.46062713 -147.40110838 493.0861553 C-147.39862876 488.35315864 -147.40767073 483.62018124 -147.41514587 478.88719177 C-147.42786182 469.62831621 -147.42969035 460.3694697 -147.42734561 451.11058687 C-147.42555839 443.57820294 -147.42732073 436.04582779 -147.43157005 428.5134449 C-147.43216524 427.43901406 -147.43276043 426.36458321 -147.43337366 425.25759386 C-147.43458549 423.07442569 -147.43579962 420.89125752 -147.43701603 418.70808936 C-147.44788014 398.25630641 -147.44573475 377.80453997 -147.43963119 357.35275609 C-147.43446608 338.6795507 -147.44570877 320.00639754 -147.46472941 301.33320247 C-147.48414519 282.12357212 -147.49235706 262.91396643 -147.48860615 243.70432621 C-147.48669939 232.93414247 -147.48913007 222.16400314 -147.50332069 211.39382744 C-147.51528343 202.2222366 -147.51658506 193.0507175 -147.50453053 183.87912559 C-147.49867528 179.20814047 -147.49744833 174.53728623 -147.50953293 169.86631012 C-147.61743967 125.12661042 -147.61743967 125.12661042 -141.375 106.0625 C-141.11605957 105.24531494 -140.85711914 104.42812988 -140.59033203 103.58618164 C-134.1298365 83.75095434 -123.94460999 66.04258109 -110.125 50.375 C-109.52171875 49.65183594 -108.9184375 48.92867187 -108.296875 48.18359375 C-90.68543745 27.279928 -64.39054294 12.39404784 -38.4375 4.5625 C-37.47759155 4.27004395 -37.47759155 4.27004395 -36.49829102 3.97167969 C-24.48118271 0.55500655 -12.40260015 -0.03448869 0 0 Z " fill="#C0FE72" transform="translate(345.125,204.625)"/>
</svg>
