<?xml version="1.0" encoding="UTF-8"?>
<svg version="1.1" xmlns="http://www.w3.org/2000/svg" width="256" height="256">
<path d="M0 0 C1.16787552 -0.01879211 1.16787552 -0.01879211 2.35934448 -0.03796387 C19.06317734 -0.25475383 34.89381572 -0.36179284 50.83984375 5.2734375 C51.51901855 5.50337402 52.19819336 5.73331055 52.89794922 5.97021484 C68.07986896 11.20625404 81.60632561 18.94624201 93.83984375 29.2734375 C94.35144043 29.69995605 94.86303711 30.12647461 95.39013672 30.56591797 C118.64369528 50.16144766 134.67437944 79.09441971 138.83984375 109.2734375 C138.9769897 112.00125306 139.07327396 114.70474471 139.11328125 117.43359375 C139.13207336 118.60146927 139.13207336 118.60146927 139.15124512 119.79293823 C139.36803508 136.49677109 139.47507409 152.32740947 133.83984375 168.2734375 C133.60990723 168.9526123 133.3799707 169.63178711 133.14306641 170.33154297 C127.90702721 185.51346271 120.16703924 199.03991936 109.83984375 211.2734375 C109.20006592 212.04083252 109.20006592 212.04083252 108.54736328 212.82373047 C88.95183359 236.07728903 60.01886154 252.10797319 29.83984375 256.2734375 C27.11202819 256.41058345 24.40853654 256.50686771 21.6796875 256.546875 C20.51181198 256.56566711 20.51181198 256.56566711 19.32034302 256.58483887 C2.61651016 256.80162883 -13.21412822 256.90866784 -29.16015625 251.2734375 C-29.83933105 251.04350098 -30.51850586 250.81356445 -31.21826172 250.57666016 C-46.40018146 245.34062096 -59.92663811 237.60063299 -72.16015625 227.2734375 C-72.92755127 226.63365967 -72.92755127 226.63365967 -73.71044922 225.98095703 C-96.96400778 206.38542734 -112.99469194 177.45245529 -117.16015625 147.2734375 C-117.2973022 144.54562194 -117.39358646 141.84213029 -117.43359375 139.11328125 C-117.44612183 138.33469757 -117.4586499 137.55611389 -117.47155762 136.75393677 C-117.68834758 120.05010391 -117.79538659 104.21946553 -112.16015625 88.2734375 C-111.93021973 87.5942627 -111.7002832 86.91508789 -111.46337891 86.21533203 C-106.22733971 71.03341229 -98.48735174 57.50695564 -88.16015625 45.2734375 C-87.7336377 44.76184082 -87.30711914 44.25024414 -86.86767578 43.72314453 C-65.97266353 18.92752029 -32.84697446 0.48156504 0 0 Z " fill="#000000" transform="translate(117.16015625,-0.2734375)"/>
<path d="M0 0 C2 2 2 2 2.1953125 4.1640625 C2.17210937 4.97617187 2.14890625 5.78828125 2.125 6.625 C2.10695312 7.44226562 2.08890625 8.25953125 2.0703125 9.1015625 C2.04710937 9.72804688 2.02390625 10.35453125 2 11 C2.763125 10.938125 3.52625 10.87625 4.3125 10.8125 C7 11 7 11 8.8125 12.0625 C10.58715034 14.95798213 10.07308092 17.67289484 10 21 C10.86278564 20.98952637 11.72557129 20.97905273 12.61450195 20.96826172 C15.81810521 20.93416017 19.0216159 20.90909143 22.2253418 20.89013672 C23.61144048 20.8800843 24.99751799 20.8664403 26.38354492 20.84912109 C28.3766975 20.82484048 30.37000533 20.81457969 32.36328125 20.8046875 C34.16212769 20.78897705 34.16212769 20.78897705 35.99731445 20.77294922 C39 21 39 21 42 23 C42.38818359 24.92358398 42.38818359 24.92358398 42.3984375 27.24609375 C42.40230469 28.08333984 42.40617187 28.92058594 42.41015625 29.78320312 C42.39855469 30.65912109 42.38695312 31.53503906 42.375 32.4375 C42.38660156 33.30955078 42.39820313 34.18160156 42.41015625 35.08007812 C42.40628906 35.91861328 42.40242188 36.75714844 42.3984375 37.62109375 C42.39505371 38.3886499 42.39166992 39.15620605 42.38818359 39.94702148 C41.8635054 42.72187618 41.33664195 43.37172456 39 45 C36.10806027 45.30143553 33.43059815 45.42000131 30.53710938 45.40405273 C29.2415789 45.41434761 29.2415789 45.41434761 27.9198761 45.42485046 C25.06100084 45.44317283 22.20267145 45.43927361 19.34375 45.43359375 C17.35982076 45.43815263 15.37589311 45.44345732 13.39196777 45.44947815 C9.23243802 45.45841971 5.07310016 45.45597387 0.91357422 45.44604492 C-4.4233882 45.43454833 -9.75968968 45.45477209 -15.09656525 45.48396206 C-19.19374821 45.50228482 -23.2907716 45.50203955 -27.38798523 45.49632454 C-29.35602242 45.49617087 -31.32407012 45.50225243 -33.29206848 45.51461601 C-36.04084069 45.52945194 -38.78837654 45.51890429 -41.53710938 45.50170898 C-42.35382614 45.51137695 -43.17054291 45.52104492 -44.01200867 45.53100586 C-49.5181888 45.45867746 -49.5181888 45.45867746 -52.00466919 43.09158325 C-53.06041001 40.87305471 -53.38613017 39.44085771 -53.3984375 36.99609375 C-53.40230469 36.25552734 -53.40617187 35.51496094 -53.41015625 34.75195312 C-53.39855469 33.98818359 -53.38695313 33.22441406 -53.375 32.4375 C-53.38660156 31.66986328 -53.39820312 30.90222656 -53.41015625 30.11132812 C-53.38132342 24.59945299 -53.38132342 24.59945299 -51.90356445 22.27636719 C-49.01474284 20.33937098 -46.58864612 20.66343486 -43.14453125 20.70703125 C-42.48289474 20.71127609 -41.82125824 20.71552094 -41.13957214 20.71989441 C-39.0301309 20.73666307 -36.92165154 20.77430901 -34.8125 20.8125 C-33.38087319 20.82754932 -31.94923138 20.8412373 -30.51757812 20.85351562 C-27.01140712 20.8865597 -23.50579746 20.93832833 -20 21 C-20.02191406 19.88496094 -20.04382813 18.76992187 -20.06640625 17.62109375 C-20 14 -20 14 -18.9375 12.0625 C-15.98831309 10.44520395 -13.29132441 10.81369862 -10 11 C-10.061875 9.741875 -10.12375 8.48375 -10.1875 7.1875 C-10.16934383 4.62294156 -10.1515987 3.28536227 -8.9375 1 C-5.91000701 -0.56257703 -3.33615038 -0.3032864 0 0 Z " fill="#F9F9F9" transform="translate(133,49)"/>
<path d="M0 0 C3.25 0.6875 3.25 0.6875 4.66455078 2.32788086 C8.53430714 8.38252398 12.01399042 14.58777409 15.375 20.9375 C18.74160924 27.26279357 22.13032611 33.55332798 25.796875 39.7109375 C26.35616699 40.65549805 26.91545898 41.60005859 27.49169922 42.57324219 C28.55758904 44.36087804 29.63680134 46.1406565 30.73095703 47.91113281 C34.24807749 53.83582713 34.24807749 53.83582713 34.2578125 58.1484375 C33.25 60.6875 33.25 60.6875 30.25 62.6875 C27.59362793 62.95492554 27.59362793 62.95492554 24.35742188 62.97802734 C23.14606567 62.99078705 21.93470947 63.00354675 20.68664551 63.01669312 C19.37723999 63.01891876 18.06783447 63.02114441 16.71875 63.0234375 C15.36258808 63.02986426 14.00642755 63.03659253 12.65026855 63.04360962 C9.80896793 63.05558108 6.9677889 63.05929046 4.12646484 63.05810547 C0.48438738 63.05790198 -3.15691232 63.0852337 -6.79880524 63.11964989 C-9.5989338 63.14187585 -12.39887367 63.1459444 -15.19908142 63.14488602 C-17.19499478 63.14839573 -19.19084926 63.17008175 -21.18664551 63.19198608 C-22.39800171 63.18583282 -23.60935791 63.17967957 -24.85742188 63.17333984 C-25.92536987 63.17618988 -26.99331787 63.17903992 -28.09362793 63.18197632 C-30.75 62.6875 -30.75 62.6875 -32.61584473 60.82046509 C-33.75 58.6875 -33.75 58.6875 -33.7890625 56.07421875 C-32.27169079 51.12849968 -29.73765067 46.94580914 -27.125 42.5 C-25.94789723 40.4617001 -24.77217661 38.42260155 -23.59765625 36.3828125 C-22.9752002 35.30547852 -22.35274414 34.22814453 -21.71142578 33.11816406 C-19.64862478 29.51018799 -17.62716539 25.88188322 -15.62109375 22.2421875 C-15.11150116 21.31840553 -15.11150116 21.31840553 -14.59161377 20.3759613 C-13.2490455 17.9404943 -11.90755747 15.50445541 -10.57073975 13.06582642 C-9.64000062 11.36905976 -8.70486076 9.67470932 -7.76953125 7.98046875 C-7.23432861 7.0061792 -6.69912598 6.03188965 -6.14770508 5.02807617 C-4.339177 1.9995419 -3.46931313 0.86732828 0 0 Z " fill="#F9F9F9" transform="translate(127.75,146.3125)"/>
<path d="M0 0 C0.80752213 -0.00287018 1.61504425 -0.00574036 2.44703674 -0.00869751 C4.1542328 -0.01073814 5.86145224 -0.00520828 7.56860352 0.00732422 C10.17843118 0.02335779 12.78670536 0.0074871 15.39648438 -0.01171875 C17.055993 -0.00973591 18.71550065 -0.00589138 20.375 0 C21.54391029 -0.00910904 21.54391029 -0.00910904 22.73643494 -0.0184021 C26.00975779 0.02395539 28.35647465 0.17694954 31.24438477 1.78637695 C32.75390625 3.3984375 32.75390625 3.3984375 33.28515625 5.58984375 C32.503836 9.72050007 30.46140555 12.79882627 28.25390625 16.3359375 C27.33763906 17.84450423 26.42228896 19.35362832 25.5078125 20.86328125 C25.04648926 21.61851074 24.58516602 22.37374023 24.10986328 23.15185547 C22.07085815 26.53012793 20.12891245 29.96126173 18.19140625 33.3984375 C14.86617779 39.28616596 14.86617779 39.28616596 13.75390625 40.3984375 C11.06640625 41.0234375 11.06640625 41.0234375 7.75390625 40.3984375 C2.59484598 34.46801222 -0.87741442 26.79319928 -4.55859375 19.8984375 C-5.61570275 17.92888987 -6.67421776 15.96009602 -7.734375 13.9921875 C-8.42333862 12.70344727 -8.42333862 12.70344727 -9.1262207 11.38867188 C-10.09254506 9.46215441 -10.09254506 9.46215441 -11.24609375 8.3984375 C-11.52298487 5.76797181 -11.64508125 4.05228229 -10.24584961 1.75927734 C-7.08197428 -0.39374928 -3.69690257 -0.02873444 0 0 Z " fill="#F8F8F8" transform="translate(117.24609375,99.6015625)"/>
<path d="M0 0 C1.93719378 -0.05406122 3.87481921 -0.09282025 5.8125 -0.125 C6.89144531 -0.14820313 7.97039062 -0.17140625 9.08203125 -0.1953125 C12 0 12 0 15 2 C14.835 2.78375 14.67 3.5675 14.5 4.375 C13.9376293 6.88208039 13.9376293 6.88208039 14 9 C14.66 9.66 15.32 10.32 16 11 C16.4375 13.4375 16.4375 13.4375 16 16 C12.75562598 19.24437402 9.5514304 19.17625276 5.1875 19.1875 C3.45786959 19.13951818 1.72836466 19.08172652 0 19 C0 18.34 0 17.68 0 17 C0.66 17 1.32 17 2 17 C2 12.05 2 7.1 2 2 C1.34 2 0.68 2 0 2 C0 1.34 0 0.68 0 0 Z " fill="#E4E4E4" transform="translate(183,130)"/>
<path d="M0 0 C2.625 -0.5625 2.625 -0.5625 6 0 C8.39920247 2.7720515 10.21328523 5.80672254 12 9 C12 6.03 12 3.06 12 0 C13.98 0 15.96 0 18 0 C17.67 6.27 17.34 12.54 17 19 C15.35 19 13.7 19 12 19 C11.60167969 18.18595703 11.60167969 18.18595703 11.1953125 17.35546875 C10.84210938 16.64003906 10.48890625 15.92460937 10.125 15.1875 C9.77695312 14.47980469 9.42890625 13.77210938 9.0703125 13.04296875 C7.9343514 10.78753582 7.9343514 10.78753582 6 8 C5.67 10.97 5.34 13.94 5 17 C5.66 17 6.32 17 7 17 C7 17.66 7 18.32 7 19 C4.69 19 2.38 19 0 19 C0 18.34 0 17.68 0 17 C0.66 17 1.32 17 2 17 C2 12.05 2 7.1 2 2 C1.34 2 0.68 2 0 2 C0 1.34 0 0.68 0 0 Z " fill="#E1E1E1" transform="translate(54,130)"/>
<path d="M0 0 C2.97 0 5.94 0 9 0 C8.01 0.33 7.02 0.66 6 1 C6 6.61 6 12.22 6 18 C4.02 18 2.04 18 0 18 C0.66 17.67 1.32 17.34 2 17 C2 12.05 2 7.1 2 2 C1.34 2 0.68 2 0 2 C0 1.34 0 0.68 0 0 Z " fill="#F6F6F6" transform="translate(183,130)"/>
<path d="M0 0 C0.66 0.33 1.32 0.66 2 1 C1.75 3.375 1.75 3.375 1 6 C-0.8125 7.375 -0.8125 7.375 -3 8 C-5.25 7.625 -5.25 7.625 -7 7 C-7 4.69 -7 2.38 -7 0 C-3.83299069 -1.05566977 -3.03571759 -0.97926374 0 0 Z " fill="#DDDDDD" transform="translate(196,131)"/>
<path d="M0 0 C0.66 0.99 1.32 1.98 2 3 C2.66 3.33 3.32 3.66 4 4 C3.67 7.3 3.34 10.6 3 14 C3.66 14 4.32 14 5 14 C5 14.66 5 15.32 5 16 C2.69 16 0.38 16 -2 16 C-2 15.34 -2 14.68 -2 14 C-1.34 14 -0.68 14 0 14 C0 9.38 0 4.76 0 0 Z " fill="#D6D6D6" transform="translate(56,133)"/>
<path d="M0 0 C2.475 0.495 2.475 0.495 5 1 C5 2.65 5 4.3 5 6 C3.35 6.33 1.7 6.66 0 7 C0 4.69 0 2.38 0 0 Z " fill="#242424" transform="translate(189,140)"/>
<path d="M0 0 C1.32 0.33 2.64 0.66 4 1 C3.67 2.65 3.34 4.3 3 6 C2.01 6 1.02 6 0 6 C0 4.02 0 2.04 0 0 Z " fill="#101010" transform="translate(189,132)"/>
</svg>
